{"title":"The Living And The Dead S01 720p BluRay HEVC 2CH x265","uid":15596669,"size":2788412219,"categoryP":"video","categoryS":"hd___tv_shows","magnet":"?xt=urn:btih:89081480e164d0eb6355b9af2a1e6d9cc378d8e7&amp;dn=The+Living+And+The+Dead+S01+720p+BluRay+HEVC+2CH+x265&amp;tr=udp%3A%2F%2Ftracker.leechers-paradise.org%3A6969&amp;tr=udp%3A%2F%2Fzer0day.ch%3A1337&amp;tr=udp%3A%2F%2Fopen.demonii.com%3A1337&amp;tr=udp%3A%2F%2Ftracker.coppersurfer.tk%3A6969&amp;tr=udp%3A%2F%2Fexodus.desync.com%3A6969","seeders":1,"leechers":1,"uploader":"nayhtut","files":12,"time":1471578309,"description":"[Screenshots]\r\n \nhttps://s4.postimg.org/uynd0fxd9/The_Living_And_The_Dead_S01_E06_720p_Blu_Ray_HEVC.jpg \nhttps://s4.postimg.org/dmn0f03vx/The_Living_And_The_Dead_S01_E05_720p_Blu_Ray_HEVC.jpg \nhttps://s4.postimg.org/c8vdjp4ml/The_Living_And_The_Dead_S01_E04_720p_Blu_Ray_HEVC.jpg \nhttps://s4.postimg.org/kserhgcz1/The_Living_And_The_Dead_S01_E03_720p_Blu_Ray_HEVC.jpg \nhttps://s4.postimg.org/f5iejzagd/The_Living_And_The_Dead_S01_E02_720p_Blu_Ray_HEVC.jpg \nhttps://s4.postimg.org/gylb8avn1/The_Living_And_The_Dead_S01_E01_720p_Blu_Ray_HEVC.jpg\r\n\r\n\r\nSource:  The Living And The Dead S01 1080p BluRay x264-SHORTBREHD  (Size: 26.24 GB)\r\n\r\n__--__--__--__--__--__--__--__--__--__--__--__--__--\r\n\r\n\r\n\r\nContains:   The Living And The Dead Season One - Episode 01 to 06\r\n\r\nFormat                                   : Matroska\r\nFormat version                           : Version 4 / Version 2\r\nFile size                                : 2.59 GiB\r\nDuration                                 : Various\r\nOverall bit rate                         : 1 079 Kbps\r\nWriting application                      : Lavf57.25.100\r\nWriting library                          : Lavf57.25.100\r\n\r\nVideo\r\n\r\nID                                       : 1\r\nFormat                                   : V_MPEGH/ISO/HEVC\r\nCodec ID                                 : V_MPEGH/ISO/HEVC\r\nDuration                                 : 58mn 59s\r\nBit rate                                 : 865 Kbps\r\nWidth                                    : 1 274 pixels\r\nHeight                                   : 720 pixels\r\nDisplay aspect ratio                     : 16:9\r\nFrame rate                               : 25.000 fps\r\nBits/(Pixel*Frame)                       : 0.038\r\nStream size                              : 365 MiB (80%)\r\nWriting library                          : Lavc57.48.101 libx265\r\nDefault                                  : Yes\r\nForced                                   : No\r\nDURATION                                 : 00:58:59.051000000\r\nNUMBER_OF_FRAMES                         : 88475\r\nNUMBER_OF_BYTES                          : 4024052367\r\n_STATISTICS_WRITING_APP                  : no_variable_data\r\n_STATISTICS_WRITING_DATE_UTC             : 1970-01-01 00:00:00\r\n_STATISTICS_TAGS                         : BPS DURATION NUMBER_OF_FRAMES NUMBER_OF_BYTES\r\n\r\nAudio\r\n\r\nID                                       : 2\r\nFormat                                   : AC-3\r\nFormat/Info                              : Audio Coding 3\r\nMode extension                           : CM (complete main)\r\nFormat settings, Endianness              : Big\r\nCodec ID                                 : A_AC3\r\nDuration                                 : 58mn 59s\r\nBit rate mode                            : Constant\r\nBit rate                                 : 192 Kbps\r\nChannel(s)                               : 2 channels\r\nChannel positions                        : Front: L R\r\nSampling rate                            : 48.0 KHz\r\nBit depth                                : 16 bits\r\nCompression mode                         : Lossy\r\nStream size                              : 81.0 MiB (18%)\r\nWriting library                          : Lavc57.24.102 ac3\r\nLanguage                                 : English\r\nDefault                                  : Yes\r\nForced                                   : No\r\nDURATION                                 : 00:58:59.103000000\r\nNUMBER_OF_FRAMES                         : 331785\r\nNUMBER_OF_BYTES                          : 667551420\r\n_STATISTICS_WRITING_APP                  : no_variable_data\r\n_STATISTICS_WRITING_DATE_UTC             : 1970-01-01 00:00:00\r\n_STATISTICS_TAGS                         : BPS DURATION NUMBER_OF_FRAMES NUMBER_OF_BYTES\r\n\r\nMenu\r\n\r\n00:00:00.000                             : :00:00:00.000\r\n00:09:37.760                             : :00:09:37.760\r\n00:19:09.960                             : :00:19:09.960\r\n00:30:03.920                             : :00:30:03.920\r\n00:39:14.440                             : :00:39:14.440\r\n00:49:23.480                             : :00:49:23.480\r\n\r\n\r\n__--__--__--__--__--__--__--__--__--__--__--__--__--\r\n\r\n\r\nIMDb: http://www.imdb.com/title/tt4928166\r\n\r\n\r\n__--__--__--__--__--__--__--__--__--__--__--__--__--\r\n\r\n\r\nAfter adding torrent with magnet link,\r\n\r\nplease add this  following trackers list to the torrent for better seeds.\r\n\r\n\r\nudp://tracker.coppersurfer.tk:6969/announce\r\n\r\nudp://tracker.opentrackr.org:1337/announce\r\n \nhttp://tracker.baravik.org:6970/announce\r\n \nhttp://tracker2.wasabii.com.tw:6969/announce\r\n\r\nudp://9.rarbg.me:2710/announce\r\n\r\n\r\n__--__--__--__--__--__--__--__--__--__--__--__--__--\r\n\r\nEnjoy!","torrent":{"xt":"urn:btih:89081480e164d0eb6355b9af2a1e6d9cc378d8e7","amp;dn":"The+Living+And+The+Dead+S01+720p+BluRay+HEVC+2CH+x265","amp;tr":["udp%3A%2F%2Ftracker.leechers-paradise.org%3A6969","udp%3A%2F%2Fzer0day.ch%3A1337","udp%3A%2F%2Fopen.demonii.com%3A1337","udp%3A%2F%2Ftracker.coppersurfer.tk%3A6969","udp%3A%2F%2Fexodus.desync.com%3A6969"],"infoHash":"89081480e164d0eb6355b9af2a1e6d9cc378d8e7","infoHashBuffer":{"type":"Buffer","data":[137,8,20,128,225,100,208,235,99,85,185,175,42,30,109,156,195,120,216,231]},"announce":[],"urlList":[]}}